<?xml version="1.0" encoding="UTF-8" standalone="no"?>
<svg width="32px" height="32px" viewBox="0 0 32 32" version="1.1" xmlns="http://www.w3.org/2000/svg" xmlns:xlink="http://www.w3.org/1999/xlink">
    <!-- Generator: sketchtool 41.2 (35397) - http://www.bohemiancoding.com/sketch -->
    <title>0A705840-8AFB-4FFC-8A97-1E983C92296E</title>
    <desc>Created with sketchtool.</desc>
    <defs></defs>
    <g id="Pages" stroke="none" stroke-width="1" fill="none" fill-rule="evenodd">
        <g id="Assets" transform="translate(-65.000000, -126.000000)" fill="#FFFFFF">
            <path d="M97,142 C97,133.163444 89.836556,126 81,126 C72.163444,126 65,133.163444 65,142 C65,150.836556 72.163444,158 81,158 C89.836556,158 97,150.836556 97,142 Z M67,142 C67,134.268014 73.2680135,128 81,128 C88.7319865,128 95,134.268014 95,142 C95,149.731986 88.7319865,156 81,156 C73.2680135,156 67,149.731986 67,142 Z M79.793,149 L82.229,149 L82.229,146.06 L79.793,146.06 L79.793,149 Z M85.526,137.786 C85.526,135.371 84.161,134.384 81.242,134.384 C79.646,134.384 77.693,135.077 77.693,135.077 L77.819,136.82 C77.819,136.82 79.646,136.421 80.948,136.421 C82.565,136.421 83.174,136.967 83.174,138.017 C83.174,138.962 82.901,139.361 81.347,140.621 C80.255,141.545 79.646,142.196 79.646,142.952 C79.646,143.939 80.15,144.59 80.15,144.59 L81.998,144.59 L81.998,143.897 C81.998,143.162 82.313,142.637 83.699,141.566 C85.211,140.348 85.526,139.655 85.526,137.786 Z" id="Ask-Beroe"></path>
        </g>
    </g>
</svg>