<?xml version="1.0" encoding="UTF-8" standalone="no"?>
<svg width="92px" height="47px" viewBox="0 0 92 47" version="1.1" xmlns="http://www.w3.org/2000/svg" xmlns:xlink="http://www.w3.org/1999/xlink">
    <!-- Generator: sketchtool 41.2 (35397) - http://www.bohemiancoding.com/sketch -->
    <title>C41F2AA6-09F5-42A8-8907-64984F7AD310</title>
    <desc>Created with sketchtool.</desc>
    <defs></defs>
    <g id="Pages" stroke="none" stroke-width="1" fill="none" fill-rule="evenodd">
        <g id="Assets" transform="translate(-723.000000, -119.000000)" fill="#FFFFFF">
            <path d="M723,139.296172 C723,139.197208 723.082534,139.131232 723.165068,139.131232 L725.310946,139.131232 C726.119777,139.131232 727.027648,139.263184 727.638398,139.65904 C728.447229,140.170353 728.760857,141.011547 728.612297,141.951704 C728.54627,142.364054 728.265655,142.660945 727.952026,142.924849 C727.852986,142.990825 727.869493,143.139271 727.968533,143.205247 C728.579283,143.535126 729.008459,144.21138 729.008459,144.953609 C729.008459,145.943248 728.397709,146.73496 727.456824,147.130815 C726.829567,147.394719 725.954709,147.460695 725.211905,147.460695 L723.165068,147.460695 C723.066027,147.460695 723,147.378225 723,147.295755 L723,139.296172 Z M724.93129,142.446523 L725.310946,142.446523 C726.185804,142.446523 726.730527,142.166126 726.730527,141.588836 C726.730527,141.242463 726.614979,141.028041 726.433405,140.896089 C726.15279,140.698161 725.674094,140.698161 725.211905,140.698161 L724.93129,140.698161 L724.93129,142.446523 L724.93129,142.446523 Z M725.822655,143.96397 L725.096358,143.96397 C724.997317,143.96397 724.93129,144.04644 724.93129,144.12891 L724.93129,145.860778 L725.261425,145.860778 C725.707108,145.860778 726.235324,145.860778 726.565459,145.695838 C726.81306,145.563887 726.961621,145.349465 726.961621,144.970103 C726.961621,144.343332 726.565459,143.96397 725.822655,143.96397 Z M730.345506,147.279261 L730.345506,139.296172 C730.345506,139.197208 730.42804,139.131232 730.510573,139.131232 L735.000411,139.131232 C735.099451,139.131232 735.165478,139.213702 735.165478,139.296172 L735.165478,140.549715 C735.165478,140.648679 735.082945,140.714655 735.000411,140.714655 L732.441864,140.714655 C732.342823,140.714655 732.276796,140.797125 732.276796,140.879595 L732.276796,142.199114 C732.276796,142.298078 732.35933,142.364054 732.441864,142.364054 L734.80233,142.364054 C734.90137,142.364054 734.967397,142.446523 734.967397,142.528993 L734.967397,143.782536 C734.967397,143.8815 734.884863,143.947476 734.80233,143.947476 L732.441864,143.947476 C732.342823,143.947476 732.276796,144.029946 732.276796,144.112416 L732.276796,145.662851 C732.276796,145.761814 732.35933,145.82779 732.441864,145.82779 L735.000411,145.82779 C735.099451,145.82779 735.165478,145.91026 735.165478,145.99273 L735.165478,147.246273 C735.165478,147.345237 735.082945,147.411213 735.000411,147.411213 L730.52708,147.411213 C730.42804,147.444201 730.345506,147.361731 730.345506,147.279261 M736.849167,139.296172 C736.849167,139.197208 736.931701,139.131232 737.014235,139.131232 L739.556275,139.131232 C740.926336,139.131232 742.676052,139.82398 742.676052,141.654812 C742.676052,142.809391 741.966261,143.518632 741.140924,143.897994 C741.041883,143.947476 741.008869,144.062934 741.074897,144.145404 C741.735167,145.069067 742.692558,146.388586 743.270295,147.180297 C743.352829,147.295755 743.270295,147.444201 743.138241,147.444201 L741.15743,147.444201 C741.10791,147.444201 741.041883,147.411213 741.025376,147.378225 L738.879498,144.21138 L738.796964,144.21138 L738.796964,147.279261 C738.796964,147.378225 738.714431,147.444201 738.631897,147.444201 L737.047248,147.444201 C736.948208,147.444201 736.882181,147.361731 736.882181,147.279261 L736.882181,139.296172 L736.849167,139.296172 Z M738.780458,142.611463 L739.292167,142.611463 C740.067984,142.611463 740.629214,142.331066 740.629214,141.704294 C740.629214,141.127005 740.183532,140.731149 739.506755,140.731149 L738.945525,140.731149 C738.846485,140.731149 738.780458,140.813619 738.780458,140.896089 L738.780458,142.611463 L738.780458,142.611463 Z M759.133286,139.296172 L759.133286,147.279261 C759.133286,147.378225 759.21582,147.444201 759.298354,147.444201 L763.788191,147.444201 C763.887232,147.444201 763.953259,147.361731 763.953259,147.279261 L763.953259,146.025718 C763.953259,145.926754 763.870725,145.860778 763.788191,145.860778 L761.229644,145.860778 C761.130604,145.860778 761.064577,145.778308 761.064577,145.695838 L761.064577,144.145404 C761.064577,144.04644 761.14711,143.980464 761.229644,143.980464 L763.59011,143.980464 C763.689151,143.980464 763.755178,143.897994 763.755178,143.815524 L763.755178,142.561981 C763.755178,142.463017 763.672644,142.397041 763.59011,142.397041 L761.229644,142.397041 C761.130604,142.397041 761.064577,142.314572 761.064577,142.232102 L761.064577,140.912583 C761.064577,140.813619 761.14711,140.747643 761.229644,140.747643 L763.788191,140.747643 C763.887232,140.747643 763.953259,140.665173 763.953259,140.582703 L763.953259,139.32916 C763.953259,139.230196 763.870725,139.16422 763.788191,139.16422 L759.314861,139.16422 C759.21582,139.131232 759.133286,139.213702 759.133286,139.296172 M750.896416,136.459207 C747.116369,136.459207 744.16166,139.362148 744.079126,143.122777 C743.996592,146.965875 747.231916,150.198696 751.07799,150.116227 C754.825023,150.033757 757.730212,147.064839 757.730212,143.287717 C757.730212,139.461112 754.725983,136.459207 750.896416,136.459207 Z M750.912922,147.955514 C748.040747,147.955514 745.927882,145.629863 746.274524,142.660945 C746.505619,140.648679 748.436909,138.817847 750.46724,138.652907 C753.388936,138.421991 755.567827,140.450751 755.567827,143.304211 C755.567827,145.99273 753.603523,147.955514 750.912922,147.955514 Z M815,142.199114 C815,129.386435 804.605523,119 791.783647,119 C778.961771,119 768.567294,129.386435 768.567294,142.199114 C768.567294,155.011792 778.961771,165.398227 791.783647,165.398227 C804.605523,165.398227 815,155.011792 815,142.199114 Z M770.431762,142.199114 C770.431762,130.416476 779.991165,120.864468 791.783647,120.864468 C803.576129,120.864468 813.135532,130.416476 813.135532,142.199114 C813.135532,153.981752 803.576129,163.53376 791.783647,163.53376 C779.991165,163.53376 770.431762,153.981752 770.431762,142.199114 Z M778.363656,137.316894 L779.469608,137.316894 L779.469608,147.411213 L783.777871,147.411213 L783.777871,148.483322 L778.363656,148.483322 L778.363656,137.316894 Z M785.213959,140.219835 L786.270391,140.219835 L786.270391,148.483322 L785.213959,148.483322 L785.213959,140.219835 Z M787.822026,137.316894 L789.027019,137.316894 L792.741039,145.943248 L796.504579,137.316894 L797.726079,137.316894 L792.856586,148.483322 L792.608985,148.483322 L787.822026,137.316894 Z M799.607849,137.316894 L806.01247,137.316894 L806.01247,138.405497 L800.730308,138.405497 L800.730308,141.918716 L805.96295,141.918716 L805.96295,143.007319 L800.730308,143.007319 L800.730308,147.394719 L805.96295,147.394719 L805.96295,148.483322 L799.607849,148.483322 L799.607849,137.316894 Z M785.742175,136.822075 C785.989776,136.822075 786.187857,136.904544 786.369432,137.085978 C786.534499,137.250918 786.63354,137.46534 786.63354,137.71275 C786.63354,137.943666 786.551006,138.158087 786.369432,138.323027 C786.204364,138.487967 785.989776,138.586931 785.742175,138.586931 C785.51108,138.586931 785.296493,138.504461 785.131425,138.323027 C784.966358,138.158087 784.867317,137.943666 784.867317,137.71275 C784.867317,137.46534 784.949851,137.267412 785.131425,137.085978 C785.296493,136.904544 785.51108,136.822075 785.742175,136.822075 Z" id="Beroe-Live-Logo"></path>
        </g>
    </g>
</svg>