<?xml version="1.0" encoding="UTF-8" standalone="no"?>
<svg width="18px" height="12px" viewBox="0 0 18 12" version="1.1" xmlns="http://www.w3.org/2000/svg" xmlns:xlink="http://www.w3.org/1999/xlink">
    <!-- Generator: sketchtool 41.2 (35397) - http://www.bohemiancoding.com/sketch -->
    <title>8BE7E325-4AE5-4BA4-B795-74B72E5ECA59</title>
    <desc>Created with sketchtool.</desc>
    <defs></defs>
    <g id="Pages" stroke="none" stroke-width="1" fill="none" fill-rule="evenodd">
        <g id="Assets" transform="translate(-283.000000, -333.000000)" fill="#CCCCCC">
            <path d="M295.272727,337.909091 C296.630909,337.909091 297.719091,336.812727 297.719091,335.454545 C297.719091,334.096364 296.630909,333 295.272727,333 C293.914545,333 292.818182,334.096364 292.818182,335.454545 C292.818182,336.812727 293.914545,337.909091 295.272727,337.909091 L295.272727,337.909091 Z M288.727273,337.909091 C290.085455,337.909091 291.173636,336.812727 291.173636,335.454545 C291.173636,334.096364 290.085455,333 288.727273,333 C287.369091,333 286.272727,334.096364 286.272727,335.454545 C286.272727,336.812727 287.369091,337.909091 288.727273,337.909091 L288.727273,337.909091 Z M288.727273,339.545455 C286.820909,339.545455 283,340.502727 283,342.409091 L283,344.454545 L294.454545,344.454545 L294.454545,342.409091 C294.454545,340.502727 290.633636,339.545455 288.727273,339.545455 L288.727273,339.545455 Z M295.272727,339.545455 C295.035455,339.545455 294.765455,339.561818 294.479091,339.586364 C295.428182,340.273636 296.090909,341.198182 296.090909,342.409091 L296.090909,344.454545 L301,344.454545 L301,342.409091 C301,340.502727 297.179091,339.545455 295.272727,339.545455 L295.272727,339.545455 Z" id="People"></path>
        </g>
    </g>
</svg>