<?xml version="1.0" encoding="UTF-8" standalone="no"?>
<svg width="17px" height="17px" viewBox="0 0 17 17" version="1.1" xmlns="http://www.w3.org/2000/svg" xmlns:xlink="http://www.w3.org/1999/xlink">
    <!-- Generator: sketchtool 41.2 (35397) - http://www.bohemiancoding.com/sketch -->
    <title>D3895D6D-B2D0-425D-9635-75C60436BDC0</title>
    <desc>Created with sketchtool.</desc>
    <defs></defs>
    <g id="Pages" stroke="none" stroke-width="1" fill="none" fill-rule="evenodd">
        <g id="Assets" transform="translate(-448.000000, -331.000000)" fill="#636363">
            <path d="M464.15,334.4 L462.45,334.4 L462.45,342.05 L451.4,342.05 L451.4,343.75 C451.4,344.2175 451.7825,344.6 452.25,344.6 L461.6,344.6 L465,348 L465,335.25 C465,334.7825 464.6175,334.4 464.15,334.4 L464.15,334.4 Z M460.75,339.5 L460.75,331.85 C460.75,331.3825 460.3675,331 459.9,331 L448.85,331 C448.3825,331 448,331.3825 448,331.85 L448,343.75 L451.4,340.35 L459.9,340.35 C460.3675,340.35 460.75,339.9675 460.75,339.5 L460.75,339.5 Z" id="Discussions"></path>
        </g>
    </g>
</svg>