<?xml version="1.0" encoding="UTF-8" standalone="no"?>
<svg width="32px" height="32px" viewBox="0 0 32 32" version="1.1" xmlns="http://www.w3.org/2000/svg" xmlns:xlink="http://www.w3.org/1999/xlink">
    <!-- Generator: sketchtool 41.2 (35397) - http://www.bohemiancoding.com/sketch -->
    <title>6BD6CAFA-FC9F-4FFE-AB3A-712B2B932CF6</title>
    <desc>Created with sketchtool.</desc>
    <defs></defs>
    <g id="Pages" stroke="none" stroke-width="1" fill="none" fill-rule="evenodd">
        <g id="Assets" transform="translate(-110.000000, -127.000000)" fill="#FFFFFF">
            <path d="M142,143 C142,134.163444 134.836556,127 126,127 C117.163444,127 110,134.163444 110,143 C110,151.836556 117.163444,159 126,159 C134.836556,159 142,151.836556 142,143 Z M112,143 C112,135.268014 118.268014,129 126,129 C133.731986,129 140,135.268014 140,143 C140,150.731986 133.731986,157 126,157 C118.268014,157 112,150.731986 112,143 Z M132.68086,147 C132.68086,147.270835 132.581903,147.505207 132.383985,147.703125 C132.186067,147.901043 131.951695,148 131.68086,148 L128.18086,148 C128.18086,148.552086 127.985549,149.023436 127.594923,149.414062 C127.204296,149.804689 126.732946,150 126.18086,150 C125.628774,150 125.157424,149.804689 124.766798,149.414062 C124.376171,149.023436 124.18086,148.552086 124.18086,148 L120.68086,148 C120.410025,148 120.175653,147.901043 119.977735,147.703125 C119.779817,147.505207 119.68086,147.270835 119.68086,147 C119.941278,146.781249 120.178255,146.552085 120.391798,146.3125 C120.60534,146.072915 120.826692,145.761721 121.05586,145.378906 C121.285028,144.996092 121.479036,144.583336 121.637891,144.140625 C121.796746,143.697914 121.926953,143.161461 122.028516,142.53125 C122.130079,141.901039 122.18086,141.223962 122.18086,140.5 C122.18086,139.708329 122.485544,138.97266 123.094923,138.292969 C123.704301,137.613278 124.503772,137.200522 125.49336,137.054688 C125.451693,136.955729 125.43086,136.854167 125.43086,136.75 C125.43086,136.541666 125.503776,136.364584 125.64961,136.21875 C125.795444,136.072916 125.972526,136 126.18086,136 C126.389194,136 126.566276,136.072916 126.71211,136.21875 C126.857944,136.364584 126.93086,136.541666 126.93086,136.75 C126.93086,136.854167 126.910027,136.955729 126.86836,137.054688 C127.857948,137.200522 128.657419,137.613278 129.266798,138.292969 C129.876176,138.97266 130.18086,139.708329 130.18086,140.5 C130.18086,141.223962 130.231641,141.901039 130.333204,142.53125 C130.434767,143.161461 130.564974,143.697914 130.723829,144.140625 C130.882684,144.583336 131.076692,144.996092 131.30586,145.378906 C131.535028,145.761721 131.75638,146.072915 131.969923,146.3125 C132.183465,146.552085 132.420442,146.781249 132.68086,147 Z" id="Notification-Icon"></path>
        </g>
    </g>
</svg>