<?xml version="1.0" encoding="UTF-8" standalone="no"?>
<svg width="32px" height="32px" viewBox="0 0 32 32" version="1.1" xmlns="http://www.w3.org/2000/svg" xmlns:xlink="http://www.w3.org/1999/xlink">
    <!-- Generator: sketchtool 41.2 (35397) - http://www.bohemiancoding.com/sketch -->
    <title>E1684693-6929-4C7E-AFBB-B633192A7AB9</title>
    <desc>Created with sketchtool.</desc>
    <defs></defs>
    <g id="Pages" stroke="none" stroke-width="1" fill="none" fill-rule="evenodd">
        <g id="Assets" transform="translate(-21.000000, -126.000000)" fill="#FFFFFF">
            <path d="M53,142 C53,133.163444 45.836556,126 37,126 C28.163444,126 21,133.163444 21,142 C21,150.836556 28.163444,158 37,158 C45.836556,158 53,150.836556 53,142 Z M23,142 C23,134.268014 29.2680135,128 37,128 C44.7319865,128 51,134.268014 51,142 C51,149.731986 44.7319865,156 37,156 C29.2680135,156 23,149.731986 23,142 Z M38.1871345,144.939284 C37.3679617,145.445491 36.4025021,145.737623 35.3688116,145.737623 C32.4036988,145.737623 30,143.333924 30,140.368812 C30,137.403699 32.4036988,135 35.3688116,135 C38.3339243,135 40.7376231,137.403699 40.7376231,140.368812 C40.7376231,141.402502 40.4454914,142.367962 39.9392836,143.187135 L43.637118,146.884969 C44.1209607,147.368812 44.1209607,148.153275 43.637118,148.637118 C43.1532754,149.120961 42.3688116,149.120961 41.8849689,148.637118 L38.1871345,144.939284 Z M32.477913,140.368812 C32.477913,138.772212 33.7722124,137.477913 35.3688116,137.477913 C36.9654107,137.477913 38.2597101,138.772212 38.2597101,140.368812 C38.2597101,141.965411 36.9654107,143.25971 35.3688116,143.25971 C33.7722124,143.25971 32.477913,141.965411 32.477913,140.368812 Z" id="Search-White"></path>
        </g>
    </g>
</svg>